<?xml version="1.0" encoding="UTF-8"?>
<svg width="14px" height="14px" viewBox="0 0 14 14" version="1.1" xmlns="http://www.w3.org/2000/svg" xmlns:xlink="http://www.w3.org/1999/xlink">
    <!-- Generator: Sketch 41.2 (35397) - http://www.bohemiancoding.com/sketch -->
    <title>edit</title>
    <desc>Created with Sketch.</desc>
    <defs></defs>
    <g id="Page-1" stroke="none" stroke-width="1" fill="none" fill-rule="evenodd">
        <path d="M7.41514121,5.78458889 C7.70826438,5.23377983 7.87495084,4.60509625 7.87495084,3.93747542 C7.87495084,1.7626765 6.11227435,0 3.93747542,0 C3.5397904,0 3.1556678,0.0590621313 2.79385756,0.168873946 L5.06884336,2.44385974 C5.40921623,2.78423262 5.40921623,3.34116664 5.06884336,3.68110202 L3.68110202,5.06884336 C3.34072915,5.40921623 2.78379512,5.40921623 2.44385974,5.06884336 L0.168873946,2.79385756 C0.0590621313,3.1556678 0,3.5397904 0,3.93747542 C0,6.11227435 1.7626765,7.87495084 3.93747542,7.87495084 C4.60509625,7.87495084 5.23377983,7.70870188 5.78458889,7.41514121 L11.1815552,13.7116019 C11.4948032,14.0769121 12.0294249,14.0974745 12.3697978,13.7571016 L13.7575391,12.3693603 C14.097912,12.0289874 14.0773496,11.4943657 13.7120394,11.1811177 L7.41514121,5.78458889 Z" id="edit" fill="#00B0C5"></path>
    </g>
</svg>