<?xml version="1.0" encoding="UTF-8"?>
<svg width="23px" height="23px" viewBox="0 0 23 23" version="1.1" xmlns="http://www.w3.org/2000/svg" xmlns:xlink="http://www.w3.org/1999/xlink">
    <!-- Generator: Sketch 41.2 (35397) - http://www.bohemiancoding.com/sketch -->
    <title>loop</title>
    <desc>Created with Sketch.</desc>
    <defs></defs>
    <g id="Page-1" stroke="none" stroke-width="1" fill="none" fill-rule="evenodd">
        <path d="M16.2190303,7.20478788 C14.9781212,5.84975758 13.1941818,5 11.211697,5 C7.46266667,5 4.42381818,8.03884848 4.42381818,11.7878788 L5.69654545,11.7878788 C5.69654545,8.74181818 8.16563636,6.27272727 11.211697,6.27272727 C12.8424848,6.27272727 14.3078182,6.98078788 15.3175152,8.10630303 L13.3329091,10.0909091 L17.9995758,10.0909091 L17.9995758,5.42424242 L16.2186061,7.20478788 L16.2190303,7.20478788 Z M16.7272727,11.7878788 C16.7272727,14.8339394 14.2581818,17.3030303 11.2121212,17.3030303 C9.58133333,17.3030303 8.116,16.5949697 7.10630303,15.4694545 L9.09090909,13.4848485 L4.42424242,13.4848485 L4.42424242,18.1515152 L6.20478788,16.3709697 C7.44569697,17.726 9.22963636,18.5757576 11.2121212,18.5757576 C14.9611515,18.5757576 18,15.5369091 18,11.7878788 L16.7272727,11.7878788 Z" id="loo[" fill="#00B0C5"></path>
    </g>
</svg>