<?xml version="1.0" encoding="UTF-8"?>
<svg width="14px" height="14px" viewBox="0 0 14 14" version="1.1" xmlns="http://www.w3.org/2000/svg" xmlns:xlink="http://www.w3.org/1999/xlink">
    <!-- Generator: Sketch 41.2 (35397) - http://www.bohemiancoding.com/sketch -->
    <title>loop</title>
    <desc>Created with Sketch.</desc>
    <defs></defs>
    <g id="Page-1" stroke="none" stroke-width="1" fill="none" fill-rule="evenodd">
        <path d="M12.2190303,2.20478788 C10.9781212,0.849757576 9.19418182,0 7.21169697,0 C3.46266667,0 0.423818182,3.03884848 0.423818182,6.78787879 L1.69654545,6.78787879 C1.69654545,3.74181818 4.16563636,1.27272727 7.21169697,1.27272727 C8.84248485,1.27272727 10.3078182,1.98078788 11.3175152,3.10630303 L9.33290909,5.09090909 L13.9995758,5.09090909 L13.9995758,0.424242424 L12.2186061,2.20478788 L12.2190303,2.20478788 Z M12.7272727,6.78787879 C12.7272727,9.83393939 10.2581818,12.3030303 7.21212121,12.3030303 C5.58133333,12.3030303 4.116,11.5949697 3.10630303,10.4694545 L5.09090909,8.48484848 L0.424242424,8.48484848 L0.424242424,13.1515152 L2.20478788,11.3709697 C3.44569697,12.726 5.22963636,13.5757576 7.21212121,13.5757576 C10.9611515,13.5757576 14,10.5369091 14,6.78787879 L12.7272727,6.78787879 Z" id="loo[" fill="#00B0C5"></path>
    </g>
</svg>