<?xml version="1.0" encoding="UTF-8"?>
<svg width="23px" height="23px" viewBox="0 0 23 23" version="1.1" xmlns="http://www.w3.org/2000/svg" xmlns:xlink="http://www.w3.org/1999/xlink">
    <!-- Generator: Sketch 41.2 (35397) - http://www.bohemiancoding.com/sketch -->
    <title>remove</title>
    <desc>Created with Sketch.</desc>
    <defs></defs>
    <g id="Page-1" stroke="none" stroke-width="1" fill="none" fill-rule="evenodd">
        <path d="M16.8903361,14.6403987 L16.8903361,14.6403987 L13.2499374,11 L16.8903361,7.35960127 L16.8903361,7.35960127 C16.92971,7.32022737 16.9578343,7.27447864 16.9762088,7.22572999 C17.0260824,7.09223371 16.9975832,6.93661304 16.8903361,6.82936602 L15.170634,5.10966386 C15.063387,5.00241684 14.9073913,4.97429263 14.77427,5.02379125 C14.7255214,5.04179075 14.6797726,5.07028996 14.6403987,5.10928887 L14.6403987,5.10928887 L11,8.7496876 L7.35960127,5.10928887 L7.35960127,5.10928887 C7.32022737,5.07028996 7.27447864,5.04179075 7.22572999,5.02379125 C7.09223371,4.97391764 6.93661304,5.00241684 6.82936602,5.10966386 L5.10966386,6.82936602 C5.00241684,6.93661304 4.97429263,7.0926087 5.02379125,7.22572999 C5.04216574,7.27447864 5.07028996,7.32022737 5.10966386,7.35960127 L5.10966386,7.35960127 L8.75006259,11 L5.10966386,14.6403987 L5.10966386,14.6403987 C5.07066495,14.6797726 5.04216574,14.7255214 5.02379125,14.77427 C4.97391764,14.9073913 5.00241684,15.063387 5.10966386,15.170634 L6.82936602,16.8903361 C6.93661304,16.9975832 7.0926087,17.0257074 7.22572999,16.9762088 C7.27447864,16.9578343 7.32022737,16.92971 7.35960127,16.8903361 L7.35960127,16.8903361 L11,13.2499374 L14.6403987,16.8903361 L14.6403987,16.8903361 C14.6797726,16.92971 14.7255214,16.9578343 14.77427,16.9762088 C14.9077663,17.0260824 15.063387,16.9975832 15.170634,16.8903361 L16.8903361,15.170634 C16.9975832,15.063387 17.0260824,14.9073913 16.9762088,14.77427 C16.9578343,14.7255214 16.92971,14.6797726 16.8903361,14.6403987 L16.8903361,14.6403987 Z" id="remove" fill="#00B0C5"></path>
    </g>
</svg>