<?xml version="1.0" encoding="UTF-8"?>
<svg width="23px" height="23px" viewBox="0 0 23 23" version="1.1" xmlns="http://www.w3.org/2000/svg" xmlns:xlink="http://www.w3.org/1999/xlink">
    <!-- Generator: Sketch 41.2 (35397) - http://www.bohemiancoding.com/sketch -->
    <title>edit</title>
    <desc>Created with Sketch.</desc>
    <defs></defs>
    <g id="Page-1" stroke="none" stroke-width="1" fill="none" fill-rule="evenodd">
        <path d="M11.4151412,9.78458889 C11.7082644,9.23377983 11.8749508,8.60509625 11.8749508,7.93747542 C11.8749508,5.7626765 10.1122743,4 7.93747542,4 C7.5397904,4 7.1556678,4.05906213 6.79385756,4.16887395 L9.06884336,6.44385974 C9.40921623,6.78423262 9.40921623,7.34116664 9.06884336,7.68110202 L7.68110202,9.06884336 C7.34072915,9.40921623 6.78379512,9.40921623 6.44385974,9.06884336 L4.16887395,6.79385756 C4.05906213,7.1556678 4,7.5397904 4,7.93747542 C4,10.1122743 5.7626765,11.8749508 7.93747542,11.8749508 C8.60509625,11.8749508 9.23377983,11.7087019 9.78458889,11.4151412 L15.1815552,17.7116019 C15.4948032,18.0769121 16.0294249,18.0974745 16.3697978,17.7571016 L17.7575391,16.3693603 C18.097912,16.0289874 18.0773496,15.4943657 17.7120394,15.1811177 L11.4151412,9.78458889 Z" id="edit" fill="#00B0C5"></path>
    </g>
</svg>