<?xml version="1.0" encoding="UTF-8"?>
<svg width="23px" height="23px" viewBox="0 0 23 23" version="1.1" xmlns="http://www.w3.org/2000/svg" xmlns:xlink="http://www.w3.org/1999/xlink">
    <!-- Generator: Sketch 41.2 (35397) - http://www.bohemiancoding.com/sketch -->
    <title>power</title>
    <desc>Created with Sketch.</desc>
    <defs></defs>
    <g id="Page-1" stroke="none" stroke-width="1" fill="none" fill-rule="evenodd">
        <path d="M14,5.2905 L14,7.415 C14.5655,7.662 15.086,8.015 15.5355,8.4645 C16.48,9.409 17,10.6645 17,12 C17,13.3355 16.48,14.591 15.5355,15.5355 C14.591,16.48 13.3355,17 12,17 C10.6645,17 9.409,16.48 8.4645,15.5355 C7.52,14.591 7,13.3355 7,12 C7,10.6645 7.52,9.409 8.4645,8.4645 C8.914,8.015 9.4345,7.6615 10,7.415 L10,5.2905 C7.1085,6.151 5,8.829 5,12 C5,15.866 8.134,19 12,19 C15.866,19 19,15.866 19,12 C19,8.829 16.8915,6.151 14,5.2905 L14,5.2905 Z M11,3 L13,3 L13,11 L11,11 L11,3 Z" id="power" fill="#00B0C5"></path>
    </g>
</svg>